<svg width="30" height="37" viewBox="0 0 30 37" fill="none" xmlns="http://www.w3.org/2000/svg">
<path fill-rule="evenodd" clip-rule="evenodd" d="M15 36.6667C15 36.6667 30 26.6667 30 15C30 11.0218 28.4196 7.20644 25.6066 4.3934C22.7936 1.58035 18.9782 0 15 0C11.0218 0 7.20644 1.58035 4.3934 4.3934C1.58035 7.20644 0 11.0218 0 15C0 26.6667 15 36.6667 15 36.6667ZM23.5466 15.1064C23.5466 19.7398 19.7905 23.4958 15.1572 23.4958C10.5239 23.4958 6.76781 19.7398 6.76781 15.1064C6.76781 10.4731 10.5239 6.71704 15.1572 6.71704C19.7905 6.71704 23.5466 10.4731 23.5466 15.1064Z" fill="white"/>
</svg>
