<svg width="40" height="49" viewBox="0 0 40 49" fill="none" xmlns="http://www.w3.org/2000/svg">
<path fill-rule="evenodd" clip-rule="evenodd" d="M20 48.8889C20 48.8889 40 35.5556 40 20C40 14.6957 37.8929 9.60859 34.1421 5.85786C30.3914 2.10714 25.3043 0 20 0C14.6957 0 9.60859 2.10714 5.85786 5.85786C2.10714 9.60859 0 14.6957 0 20C0 35.5556 20 48.8889 20 48.8889ZM31.3955 20.1419C31.3955 26.3197 26.3874 31.3278 20.2096 31.3278C14.0318 31.3278 9.02374 26.3197 9.02374 20.1419C9.02374 13.9641 14.0318 8.95605 20.2096 8.95605C26.3874 8.95605 31.3955 13.9641 31.3955 20.1419Z" fill="#005B60"/>
</svg>
