<svg width="40" height="41" viewBox="0 0 40 41" fill="none" xmlns="http://www.w3.org/2000/svg">
<path d="M39.9988 30.0071V36.0407C40.001 36.6008 39.8863 37.1552 39.6619 37.6685C39.4375 38.1817 39.1084 38.6424 38.6957 39.021C38.2829 39.3997 37.7957 39.688 37.265 39.8674C36.7345 40.0468 36.1722 40.1135 35.6144 40.0631C29.4256 39.3906 23.4809 37.2759 18.2578 33.8887C13.3984 30.8009 9.27853 26.681 6.19067 21.8216C2.79172 16.5748 0.676483 10.6012 0.0163242 4.38459C-0.0339344 3.82843 0.0321622 3.26789 0.210405 2.73868C0.388647 2.20946 0.675131 1.72316 1.05162 1.31073C1.4281 0.898298 1.88634 0.568777 2.39715 0.343147C2.90797 0.117517 3.46016 0.000720874 4.01859 0.000194989H10.0522C11.0282 -0.00941135 11.9744 0.336222 12.7145 0.972671C13.4545 1.60912 13.9379 2.49296 14.0745 3.45944C14.3292 5.39032 14.8015 7.28618 15.4824 9.11088C15.753 9.83073 15.8115 10.6131 15.6511 11.3652C15.4907 12.1173 15.1181 12.8077 14.5773 13.3545L12.0231 15.9087C14.8862 20.9438 19.0552 25.1128 24.0903 27.9758L26.6445 25.4216C27.1913 24.8809 27.8817 24.5082 28.6338 24.3478C29.3859 24.1874 30.1682 24.246 30.8881 24.5166C32.7128 25.1975 34.6086 25.6698 36.5395 25.9244C37.5165 26.0622 38.4087 26.5543 39.0465 27.3071C39.6843 28.0599 40.0232 29.0208 39.9988 30.0071Z" fill="#005B60"/>
</svg>
