<svg width="30" height="31" viewBox="0 0 30 31" fill="none" xmlns="http://www.w3.org/2000/svg">
<path d="M29.9991 22.5054V27.0305C30.0008 27.4506 29.9147 27.8664 29.7464 28.2513C29.5781 28.6362 29.3313 28.9818 29.0218 29.2658C28.7122 29.5498 28.3467 29.766 27.9488 29.9006C27.5508 30.0351 27.1292 30.0851 26.7108 30.0473C22.0692 29.543 17.6106 27.9569 13.6934 25.4165C10.0488 23.1007 6.95889 20.0107 4.64301 16.3662C2.09379 12.4311 0.507362 7.95087 0.0122432 3.28844C-0.0254508 2.87132 0.0241216 2.45092 0.157804 2.05401C0.291486 1.6571 0.506348 1.29237 0.788712 0.983046C1.07108 0.673723 1.41475 0.426583 1.79786 0.25736C2.18097 0.0881376 2.59512 0.000540655 3.01394 0.000146242H7.53912C8.27115 -0.00705851 8.98083 0.252166 9.53587 0.729503C10.0909 1.20684 10.4534 1.86972 10.5559 2.59458C10.7469 4.04274 11.1011 5.46464 11.6118 6.83316C11.8147 7.37305 11.8586 7.9598 11.7383 8.52389C11.618 9.08797 11.3386 9.60575 10.933 10.0159L9.01734 11.9315C11.1646 15.7079 14.2914 18.8346 18.0677 20.9819L19.9833 19.0662C20.3935 18.6607 20.9112 18.3812 21.4753 18.2609C22.0394 18.1406 22.6262 18.1845 23.1661 18.3874C24.5346 18.8981 25.9565 19.2523 27.4046 19.4433C28.1374 19.5467 28.8065 19.9158 29.2849 20.4803C29.7633 21.0449 30.0174 21.7656 29.9991 22.5054Z" fill="black"/>
</svg>
